<?xml version="1.0" encoding="iso-8859-1"?>
<!-- Generator: Adobe Illustrator 19.0.0, SVG Export Plug-In . SVG Version: 6.00 Build 0)  -->
<svg version="1.1" id="Layer_1" xmlns="http://www.w3.org/2000/svg" xmlns:xlink="http://www.w3.org/1999/xlink" x="0px" y="0px"
	 viewBox="0 0 512 512" style="enable-background:new 0 0 512 512;" xml:space="preserve">
<path style="fill:#FFE2C5;" d="M75.793,181.005v149.418c0,95.953,78.331,173.74,174.957,173.74h10.495
	c96.628,0,174.96-77.787,174.96-173.74V181.005H75.793z"/>
<g style="opacity:0.1;">
	<path style="fill:#414042;" d="M119.195,330.423V181.005H75.793v149.418c0,95.953,78.331,173.74,174.957,173.74h10.495
		c5.55,0,11.036-0.269,16.454-0.77C188.791,495.156,119.195,420.864,119.195,330.423z"/>
</g>
<path style="fill:#00997C;" d="M454.901,234.157v-28.853C440.611,100.865,365.852,7.837,255.999,7.837
	c-109.851,0-183.213,90.251-198.903,197.467v28.853h397.804V234.157z"/>
<path style="fill:#FFFFFF;" d="M379.355,55.735l-10.096,6.236L338.365,42.89c-4.205-2.6-9.519-2.598-13.727,0l-30.897,19.081
	L262.848,42.89c-4.206-2.598-9.52-2.598-13.727,0l-30.892,19.081L187.34,42.89c-4.207-2.598-9.52-2.598-13.728,0l-30.894,19.081
	l-10.411-6.43c-6.573,5.96-12.773,12.385-18.584,19.225l22.131,13.67c4.207,2.598,9.52,2.598,13.728,0l30.893-19.081l30.888,19.081
	c4.207,2.598,9.52,2.598,13.728,0l30.893-19.081l30.893,19.081c2.103,1.3,4.483,1.949,6.863,1.949c2.379,0,4.761-0.65,6.863-1.949
	L331.5,69.355l30.894,19.081c4.206,2.598,9.52,2.598,13.727,0l21.897-13.524C392.183,68.1,385.952,61.693,379.355,55.735z"/>
<g>
	<path style="fill:#008269;" d="M214.285,123.825h-12.423l8.784-8.667c2.358-2.327,2.358-6.102,0-8.428
		c-2.359-2.329-6.185-2.329-8.543,0l-8.784,8.666v-12.259c0-3.291-2.704-5.961-6.041-5.961c-3.335,0-6.041,2.67-6.041,5.961v12.258
		l-8.783-8.666c-2.361-2.329-6.186-2.329-8.545,0c-2.359,2.327-2.359,6.102,0,8.43l8.783,8.665h-12.422
		c-3.337,0-6.041,2.668-6.041,5.959c0,3.291,2.703,5.959,6.041,5.959h12.424l-8.786,8.667c-2.359,2.329-2.359,6.104,0,8.43
		c1.181,1.161,2.724,1.745,4.273,1.745c1.545,0,3.093-0.584,4.273-1.745l8.783-8.666v12.254c0,3.291,2.705,5.961,6.041,5.961
		c3.336,0,6.041-2.67,6.041-5.961v-12.251l8.784,8.666c1.179,1.161,2.725,1.745,4.273,1.745c1.545,0,3.092-0.584,4.271-1.745
		c2.358-2.327,2.358-6.102,0-8.43l-8.784-8.667h12.423c3.337,0,6.042-2.668,6.042-5.959S217.624,123.825,214.285,123.825z"/>
	<path style="fill:#008269;" d="M351.726,123.825h-12.423l8.784-8.667c2.36-2.327,2.36-6.102,0-8.428
		c-2.356-2.329-6.184-2.329-8.542,0l-8.785,8.667v-12.26c0-3.291-2.702-5.961-6.041-5.961c-3.335,0-6.04,2.67-6.04,5.961v12.258
		l-8.783-8.666c-2.36-2.329-6.186-2.329-8.546,0c-2.357,2.327-2.357,6.102,0,8.43l8.783,8.665h-12.422
		c-3.337,0-6.04,2.668-6.04,5.959c0,3.291,2.702,5.959,6.04,5.959h12.424l-8.785,8.667c-2.357,2.329-2.357,6.104,0,8.43
		c1.182,1.161,2.726,1.745,4.273,1.745c1.545,0,3.093-0.584,4.274-1.745l8.783-8.667v12.256c0,3.291,2.704,5.961,6.04,5.961
		c3.338,0,6.041-2.67,6.041-5.961v-12.256l8.785,8.667c1.179,1.161,2.725,1.745,4.273,1.745c1.545,0,3.093-0.584,4.269-1.745
		c2.36-2.327,2.36-6.102,0-8.43l-8.784-8.667h12.423c3.338,0,6.042-2.668,6.042-5.959
		C357.767,126.491,355.065,123.825,351.726,123.825z"/>
</g>
<g>
	<polygon style="fill:#FFFFFF;" points="120.272,154.241 103.122,137.32 120.272,120.398 137.423,137.32 	"/>
	<polygon style="fill:#FFFFFF;" points="255.999,154.241 238.85,137.32 255.999,120.398 273.149,137.32 	"/>
	<polygon style="fill:#FFFFFF;" points="391.726,154.241 374.576,137.32 391.726,120.398 408.877,137.32 	"/>
</g>
<g>
	<path style="fill:#ED5D51;" d="M89.803,353.505c0,18.224-14.881,32.998-33.238,32.998l0,0c-18.357,0-33.239-14.774-33.239-32.998
		v-63.46c0-18.224,14.881-33,33.239-33l0,0c18.357,0,33.238,14.776,33.238,33V353.505z"/>
	<path style="fill:#ED5D51;" d="M488.673,353.505c0,18.224-14.881,32.998-33.239,32.998l0,0c-18.357,0-33.239-14.774-33.239-32.998
		v-63.46c0-18.224,14.881-33,33.239-33l0,0c18.357,0,33.239,14.776,33.239,33V353.505z"/>
</g>
<g>
	<path style="fill:#FFC197;" d="M168.95,376.49c0,14.528-11.89,26.308-26.554,26.308s-26.552-11.779-26.552-26.308
		c0-14.532,11.888-26.308,26.552-26.308S168.95,361.957,168.95,376.49z"/>
	<path style="fill:#FFC197;" d="M396.155,376.49c0,14.528-11.888,26.308-26.553,26.308c-14.664,0-26.552-11.779-26.552-26.308
		c0-14.532,11.888-26.308,26.552-26.308C384.267,350.182,396.155,361.957,396.155,376.49z"/>
</g>
<path id="SVGCleanerId_0" style="fill:#00B494;" d="M92.053,268.039c-30.024,0-54.451-24.251-54.451-54.059
	c0-12.98,10.599-23.502,23.675-23.502h389.445c13.077,0,23.675,10.522,23.675,23.502c0,29.808-24.427,54.059-54.452,54.059H92.053z"
	/>
<g>
	<path id="SVGCleanerId_0_1_" style="fill:#00B494;" d="M92.053,268.039c-30.024,0-54.451-24.251-54.451-54.059
		c0-12.98,10.599-23.502,23.675-23.502h389.445c13.077,0,23.675,10.522,23.675,23.502c0,29.808-24.427,54.059-54.452,54.059H92.053z
		"/>
</g>
<g style="opacity:0.2;">
	<path style="fill:#414042;" d="M475.982,375.135c-0.489,1.83-1.017,3.644-1.564,5.45c1.357-0.939,2.638-1.978,3.839-3.102
		C477.46,376.737,476.7,375.955,475.982,375.135z"/>
	<path style="fill:#414042;" d="M69.293,353.505v-63.46c0-18.224,14.881-33,33.239-33c0.936,0,1.863,0.048,2.78,0.123
		c-13.195-9.874-21.744-25.558-21.744-43.189c0-12.434,9.729-22.606,22.043-23.44c18.511-93.07,81.154-170.287,173.376-181.337
		c-7.375-0.893-14.926-1.366-22.658-1.366c-104.768,0-176.344,82.093-196.355,182.702c-12.314,0.834-22.043,11.005-22.043,23.44
		c0,17.631,8.549,33.314,21.744,43.189c-0.917-0.075-1.844-0.123-2.78-0.123c-18.357,0-33.239,14.776-33.239,33v63.46
		c0,18.224,14.881,32.998,33.239,32.998c8.839,0,16.863-3.432,22.815-9.02C73.299,371.467,69.293,362.953,69.293,353.505z"/>
</g>
<g>
	<ellipse style="fill:#636052;" cx="176.901" cy="325.204" rx="21.263" ry="21.174"/>
	<path style="fill:#636052;" d="M331.34,303.02c-11.74,0-21.264,9.479-21.264,21.172c0,11.693,9.523,21.174,21.264,21.174
		c11.743,0,21.262-9.479,21.262-21.174C352.6,312.5,343.082,303.02,331.34,303.02z"/>
	<path style="fill:#636052;" d="M299.789,372.189c-4.329,0-7.837,3.508-7.837,7.837c0,19.603-16.129,35.551-35.953,35.551
		s-35.953-15.948-35.953-35.551c0-4.329-3.508-7.837-7.837-7.837c-4.329,0-7.837,3.508-7.837,7.837
		c0,28.245,23.159,51.224,51.626,51.224s51.626-22.979,51.626-51.224C307.626,375.698,304.118,372.189,299.789,372.189z"/>
	<path style="fill:#636052;" d="M469.331,251.637c8.081-10.441,12.903-23.497,12.903-37.657c0-14.404-9.826-26.562-23.159-30.212
		c-9.971-46.741-31.615-89.391-62.085-121.735C358.76,21.45,310.006,0,255.999,0c-54.137,0-102.705,21.086-140.454,60.977
		c-30.254,31.972-52.043,74.992-62.47,122.747c-13.41,3.599-23.311,15.796-23.311,30.255c0,14.16,4.82,27.216,12.902,37.657
		c-15.826,5.675-27.178,20.74-27.178,38.408v63.46c0,22.517,18.427,40.835,41.076,40.835c7.677,0,14.865-2.111,21.018-5.769
		C102.043,460.259,170.423,512,250.751,512h10.495c80.33,0,148.709-51.741,173.171-123.43c6.153,3.658,13.342,5.769,21.018,5.769
		c22.649,0,41.076-18.318,41.076-40.835v-63.46C496.51,272.378,485.159,257.311,469.331,251.637z M126.931,71.751
		c34.715-36.686,79.346-56.078,129.069-56.078c49.579,0,94.388,19.746,129.583,57.106c27.564,29.259,47.428,67.636,57.189,109.862
		H69.389C79.555,139.433,99.551,100.683,126.931,71.751z M61.278,198.314h389.445c8.733,0,15.839,7.028,15.839,15.665
		c0,25.487-20.912,46.222-46.615,46.222H92.053c-25.703,0-46.614-20.736-46.614-46.222
		C45.438,205.342,52.543,198.314,61.278,198.314z M81.966,353.505c0,13.873-11.395,25.161-25.401,25.161
		s-25.403-11.288-25.403-25.161v-63.46c0-13.875,11.395-25.163,25.403-25.163c0.038,0,0.074,0.002,0.112,0.003
		c5.778,3.978,12.261,7.008,19.224,8.868c3.777,4.394,6.066,10.081,6.066,16.292V353.505z M261.245,496.327H250.75
		c-75.947,0-140.208-50.559-160.463-119.549c4.629-6.608,7.353-14.629,7.353-23.273v-63.46c0-4.982-0.913-9.753-2.566-14.169h321.85
		c-1.653,4.416-2.566,9.187-2.566,14.169v63.46c0,8.644,2.724,16.665,7.353,23.273C401.456,445.767,337.194,496.327,261.245,496.327
		z M480.836,353.505c0,13.873-11.395,25.161-25.403,25.161c-14.007,0-25.403-11.288-25.403-25.161v-63.46
		c0-6.21,2.287-11.899,6.066-16.292c6.963-1.86,13.445-4.892,19.223-8.868c0.038-0.001,0.075-0.003,0.113-0.003
		c14.007,0,25.402,11.288,25.402,25.163v63.46H480.836z"/>
</g>
<g>
</g>
<g>
</g>
<g>
</g>
<g>
</g>
<g>
</g>
<g>
</g>
<g>
</g>
<g>
</g>
<g>
</g>
<g>
</g>
<g>
</g>
<g>
</g>
<g>
</g>
<g>
</g>
<g>
</g>
</svg>
